<svg xmlns="http://www.w3.org/2000/svg" version="1.1" xmlns:xlink="http://www.w3.org/1999/xlink" width="512" height="512" x="0" y="0" viewBox="0 0 3873 3873" style="enable-background:new 0 0 512 512" xml:space="preserve" class=""><g><path d="M2442.5 1394.6c-147.1.8-151 42.5-283.2 42.5-133.5 0-136-42.6-287.4-42.6-151.3 0-153.9 42.6-287.4 42.6s-135.9-42.6-287.4-42.6c-151.1 0-154.1 42.6-287.4 42.6-64.9 0-97.1-9.5-129.3-19.1-38.9-11.5-77.8-23.1-153.8-23.5l-443-504.6h2602c-15.2 17.3-424.3 483.3-443.1 504.7zM2947 974.2v460.1c-110.7-9.3-214.9-48.8-303.5-114.4zM3383 381.7l-333.8 333.8V243.4c123.5 10.4 239 58.3 333.8 138.3zM3121.4 787.8l333.9-333.9c77.9 92.4 127.6 207.6 138.2 333.9zM3049.2 962.2 3383 1296c-94.7 80-210.2 127.9-333.8 138.3zM2541 454l333.8 333.8h-472.1C2413 664.5 2460.8 548.9 2541 454zM2947 715.6l-333.8-333.8c94.9-80.1 210.5-128 333.8-138.3zM3455.3 1223.9 3121.4 890h472.1c-5.3 62.6-20.1 122.3-43 177.6-23.6 57.1-55.9 109.7-95.2 156.3zM1679 2264.2l663.3-755.5c-47.8 12.5-85.4 30.5-183 30.5-151.3 0-154-42.6-287.4-42.6-133.5 0-135.9 42.6-287.4 42.6-151.1 0-154.1-42.6-287.4-42.6-133.5 0-136 42.6-287.4 42.6-97.7 0-135.9-18.3-182.9-30.5l663.3 755.5v1188h-444.8c-52.2 0-94.5 42.3-94.5 94.5s42.3 94.5 94.5 94.5h1078.4c52.2 0 94.5-42.3 94.5-94.5s-42.3-94.5-94.5-94.5H1679z" fill="#bf0811" opacity="1" data-original="#000000" class=""></path></g></svg>